# xmcd
#
# Track frame offsets: 
#        150
#        11537
#        22612
#        45615
#        72748
#        93942
#        133883
#        149412
#        169068
#        191914
#        221650
#        245623
#        267837
#        293834
#
# Disc length: 4199 seconds
#
# Revision: 0
# Processed by: cddbd v1.5.2PL0 Copyright (c) Steve Scherf et al.
# Submitted via: ExactAudioCopy v0.95b3
#
DISCID=d310650e
DTITLE=Santana  - Multi Dimensional Warrior [CD1]
DYEAR=1900
DGENRE=
TTITLE0=01 Let There Be Light
TTITLE1=02 Brotherhood
TTITLE2=03 Spirit
TTITLE3=04 Right Now
TTITLE4=05 Life Is For Living
TTITLE5=06 Saja\\Right On
TTITLE6=07 Somewhere In Heaven
TTITLE7=08 I Believe It's Time
TTITLE8=09 Serpents And Doves
TTITLE9=10 Your Touch
TTITLE10=11 I'll Be Waiting
TTITLE11=12 The River
TTITLE12=13 Bailando\\Aquatic Park
TTITLE13=14 Praise
EXTD=
EXTT0=
EXTT1=
EXTT2=
EXTT3=
EXTT4=
EXTT5=
EXTT6=
EXTT7=
EXTT8=
EXTT9=
EXTT10=
EXTT11=
EXTT12=
EXTT13=
PLAYORDER=
